# xmcd
#
# Track frame offsets: 
#        150
#        5230
#        9659
#        12878
#        16097
#        19423
#        22642
#        25861
#        30290
#        34114
#        37333
#        40552
#        44270
#        48913
#        53556
#        58199
#        62842
#        67340
#        71983
#        76626
#        81269
#        85912
#        90555
#        95198
#        99841
#        104484
#        109127
#        114269
#        119411
#        124054
#        128697
#        133340
#        137983
#        142638
#        147293
#        151948
#        156603
#        161258
#        165913
#        170568
#        175223
#        179968
#        185577
#        191186
#        196795
#        202404
#        209478
#        216817
#        223292
#        228901
#        234510
#        240732
#        246952
#        253266
#        259896
#        266210
#        271400
#        276590
#        281972
#        289242
#        295689
#        301071
#        304854
#        312996
#        321875
#        330632
#        339532
#
# Disc length: 4768 seconds
#
# Revision: 0
# Processed by: cddbd v1.5.2PL0 Copyright (c) Steve Scherf et al.
# Submitted via: ExactAudioCopy v1.3
#
DISCID=f4129e43
DTITLE=Ben Hewlett - Sonny Terry Blues Riffs (vol 18)
DYEAR=2009
DGENRE=Blues
TTITLE0=Intro
TTITLE1=Riff 01
TTITLE2=Riff 02
TTITLE3=Riff 03
TTITLE4=Riff 04
TTITLE5=Riff 05
TTITLE6=Riff 06
TTITLE7=Riff 07
TTITLE8=Riff 08
TTITLE9=Riff 09
TTITLE10=Riff 10
TTITLE11=Riff 11
TTITLE12=Riff 12
TTITLE13=Riff 13
TTITLE14=Riff 14
TTITLE15=Riff 15
TTITLE16=Riff 16
TTITLE17=Riff 17
TTITLE18=Riff 18
TTITLE19=Riff 19
TTITLE20=Riff 20
TTITLE21=Riff 21
TTITLE22=Riff 22
TTITLE23=Riff 23
TTITLE24=Riff 24
TTITLE25=Riff 25
TTITLE26=Riff 26
TTITLE27=Riff 27
TTITLE28=Riff 28
TTITLE29=Riff 29
TTITLE30=Riff 30
TTITLE31=Riff 31
TTITLE32=Riff 32
TTITLE33=Riff 33
TTITLE34=Riff 34
TTITLE35=Riff 35
TTITLE36=Riff 36
TTITLE37=Riff 37
TTITLE38=Riff 38
TTITLE39=Riff 39
TTITLE40=Riff 40
TTITLE41=Riff 41
TTITLE42=Riff 42
TTITLE43=Riff 43
TTITLE44=Riff 44
TTITLE45=Riff 45
TTITLE46=Riff 46
TTITLE47=Riff 47
TTITLE48=Riff 48
TTITLE49=Riff 49
TTITLE50=Riff 50
TTITLE51=Riff 51
TTITLE52=Riff 52
TTITLE53=Riff 53
TTITLE54=Riff 54
TTITLE55=Riff 55
TTITLE56=Riff 56
TTITLE57=Riff 57
TTITLE58=Riff 58
TTITLE59=Riff 59
TTITLE60=Riff 60
TTITLE61=Outro
TTITLE62=Playalong track in E (Faith in Groove)
TTITLE63=Playalong track in D (Curly Cale) 
TTITLE64=Playalong track in F (Joey's Blues)
TTITLE65=Playalong track in G (Come on Johnny)
TTITLE66=Good Friends (Joe Filisko cover)
EXTD=
EXTT0=
EXTT1=
EXTT2=
EXTT3=
EXTT4=
EXTT5=
EXTT6=
EXTT7=
EXTT8=
EXTT9=
EXTT10=
EXTT11=
EXTT12=
EXTT13=
EXTT14=
EXTT15=
EXTT16=
EXTT17=
EXTT18=
EXTT19=
EXTT20=
EXTT21=
EXTT22=
EXTT23=
EXTT24=
EXTT25=
EXTT26=
EXTT27=
EXTT28=
EXTT29=
EXTT30=
EXTT31=
EXTT32=
EXTT33=
EXTT34=
EXTT35=
EXTT36=
EXTT37=
EXTT38=
EXTT39=
EXTT40=
EXTT41=
EXTT42=
EXTT43=
EXTT44=
EXTT45=
EXTT46=
EXTT47=
EXTT48=
EXTT49=
EXTT50=
EXTT51=
EXTT52=
EXTT53=
EXTT54=
EXTT55=
EXTT56=
EXTT57=
EXTT58=
EXTT59=
EXTT60=
EXTT61=
EXTT62=
EXTT63=
EXTT64=
EXTT65=
EXTT66=
PLAYORDER=
